<svg width="19" height="19" viewBox="0 0 19 19" fill="none" xmlns="http://www.w3.org/2000/svg">
<path d="M11.5849 17.0189L11.594 17.0253C12.3811 17.5264 13.3155 17.744 14.243 17.6422C15.1705 17.5403 16.0354 17.1251 16.6949 16.4651L17.2679 15.8921C17.3949 15.7653 17.4956 15.6146 17.5643 15.4488C17.633 15.2829 17.6684 15.1052 17.6684 14.9257C17.6684 14.7462 17.633 14.5685 17.5643 14.4026C17.4956 14.2368 17.3949 14.0861 17.2679 13.9593L14.8513 11.5445C14.7244 11.4175 14.5738 11.3168 14.408 11.2481C14.2421 11.1794 14.0644 11.144 13.8849 11.144C13.7054 11.144 13.5276 11.1794 13.3618 11.2481C13.196 11.3168 13.0453 11.4175 12.9184 11.5445C12.6622 11.8007 12.3148 11.9446 11.9525 11.9446C11.5902 11.9446 11.2427 11.8007 10.9865 11.5445L7.12251 7.67965C6.86636 7.42342 6.72247 7.07596 6.72247 6.71366C6.72247 6.35136 6.86636 6.00389 7.12251 5.74767C7.24948 5.62078 7.3502 5.47012 7.41892 5.3043C7.48764 5.13847 7.52301 4.96073 7.52301 4.78123C7.52301 4.60172 7.48764 4.42398 7.41892 4.25816C7.3502 4.09233 7.24948 3.94167 7.12251 3.81478L4.70686 1.40004C4.45063 1.14389 4.10317 1 3.74087 1C3.37857 1 3.0311 1.14389 2.77488 1.40004L2.20102 1.97298C1.54118 2.63262 1.12611 3.49764 1.02442 4.4251C0.922735 5.35256 1.1405 6.28697 1.64174 7.07391L1.64721 7.08302C4.29439 10.9996 7.66783 14.3724 11.5849 17.0189V17.0189Z" stroke="#170F49" stroke-width="1.4" stroke-linecap="round" stroke-linejoin="round"/>
</svg>
