<svg width="19" height="15" viewBox="0 0 19 15" fill="none" xmlns="http://www.w3.org/2000/svg">
<path d="M17.6667 3.0835V11.4168C17.6667 11.9694 17.4472 12.4993 17.0565 12.89C16.6658 13.2807 16.1359 13.5002 15.5833 13.5002H3.08333C2.5308 13.5002 2.00089 13.2807 1.61019 12.89C1.21949 12.4993 1 11.9694 1 11.4168V3.0835" stroke="#170F49" stroke-width="1.4" stroke-linecap="round" stroke-linejoin="round"/>
<path d="M17.6667 3.08333C17.6667 2.5308 17.4472 2.0009 17.0565 1.61019C16.6658 1.21949 16.1359 1 15.5833 1H3.08333C2.5308 1 2.00089 1.21949 1.61019 1.61019C1.21949 2.0009 1 2.5308 1 3.08333L8.22917 7.59722C8.56027 7.80417 8.94288 7.91389 9.33333 7.91389C9.72379 7.91389 10.1064 7.80417 10.4375 7.59722L17.6667 3.08333Z" stroke="#170F49" stroke-width="1.4" stroke-linecap="round" stroke-linejoin="round"/>
</svg>
