<svg width="289" height="291" viewBox="0 0 289 291" fill="none" xmlns="http://www.w3.org/2000/svg">
<mask id="mask0_1802_58943" style="mask-type:alpha" maskUnits="userSpaceOnUse" x="0" y="0" width="289" height="291">
<rect width="289" height="291" fill="#C4C4C4"/>
</mask>
<g mask="url(#mask0_1802_58943)">
<path d="M151.266 3.49322C200.581 8.61006 247.068 31.6595 270.045 77.6078C281.298 100.11 285.791 125.654 285.011 150.801C283.905 186.509 274.479 225.884 251.624 254.096C236.498 272.769 214.394 286.568 190.421 288.236C166.449 289.904 141.146 277.936 130.171 256.557C113.587 224.249 131.658 180.897 111.531 150.669C102.82 137.587 88.3423 129.544 73.7683 123.661C59.1944 117.779 43.861 113.496 30.3143 105.53C16.7677 97.564 4.81815 84.9351 2.56596 69.3816C0.324033 53.9012 8.30086 38.2122 20.1093 27.9531C31.9177 17.694 47.0752 12.1207 62.2546 8.34074C90.5321 1.2981 121.887 0.480816 150.986 3.46185C151.079 3.47273 151.172 3.48319 151.266 3.49322Z" fill="#FF569A"/>
</g>
</svg>
