<svg width="455" height="395" viewBox="0 0 455 395" fill="none" xmlns="http://www.w3.org/2000/svg">
<mask id="mask0_1802_58970" style="mask-type:alpha" maskUnits="userSpaceOnUse" x="0" y="0" width="455" height="395">
<rect width="455" height="395" fill="#C4C4C4"/>
</mask>
<g mask="url(#mask0_1802_58970)">
<path opacity="0.1" d="M430.278 292.964C418.528 322.269 401.554 350.422 376.233 369.286C350.913 388.149 316.169 396.306 286.896 384.479C245.153 367.612 224.874 316.73 183.08 299.986C144.295 284.448 98.2575 302.94 59.2839 287.875C31.1619 277.006 11.4188 249.183 6.46365 219.439C-8.29762 130.837 91.7477 53.9877 164.511 25.7857C210.818 7.83822 261.704 2.02526 310.898 8.65552C355.204 14.6261 392.051 43.3505 416.866 80.4677C457.907 141.861 457.761 224.421 430.278 292.964Z" fill="white"/>
</g>
</svg>
