<svg width="292" height="275" viewBox="0 0 292 275" fill="none" xmlns="http://www.w3.org/2000/svg">
<mask id="mask0_1802_58971" style="mask-type:alpha" maskUnits="userSpaceOnUse" x="0" y="0" width="292" height="275">
<rect width="292" height="275" fill="#C4C4C4"/>
</mask>
<g mask="url(#mask0_1802_58971)">
<path d="M284.319 153.273C274.762 200.939 247.961 244.184 200.982 262.362C177.976 271.265 152.625 273.287 128.15 270.2C93.3963 265.816 55.8316 252.972 30.4073 228.052C13.579 211.559 2.15395 188.705 2.74347 165.15C3.333 141.595 17.3572 118.003 39.241 109.268C72.3134 96.0678 112.96 117.719 144.329 100.869C157.905 93.5761 167.096 80.1875 174.186 66.5053C181.277 52.8231 186.876 38.2516 195.906 25.765C204.935 13.2784 218.368 2.78219 233.759 2.0227C249.078 1.26646 263.655 10.5046 272.577 22.9806C281.499 35.4566 285.537 50.7682 287.822 65.9354C292.081 94.1902 289.978 124.873 284.375 153.003C284.356 153.092 284.337 153.182 284.319 153.273Z" fill="#01D8AD"/>
</g>
</svg>
